<svg xmlns="http://www.w3.org/2000/svg" xmlns:xlink="http://www.w3.org/1999/xlink" id="processonSvg1000" viewBox="110.26785714285717 210.28571428571433 1421.1607142857129 1136.4285714285716" width="1421.1607142857129" height="1136.4285714285716"><defs id="ProcessOnDefs1001"><marker id="ProcessOnMarker1042" markerUnits="userSpaceOnUse" orient="auto" markerWidth="16.23606797749979" markerHeight="10.550836550532098" viewBox="-1.0 -1.3763819204711736 16.23606797749979 10.550836550532098" refX="-1.0" refY="3.8990363547948754"><path id="ProcessOnPath1043" d="M12.0 3.8990363547948754L0.0 7.798072709589751V0.0Z" stroke="#323232" stroke-width="2.0" fill="#fff" transform="matrix(1.0,0.0,0.0,1.0,0.0,0.0)"/></marker><marker id="ProcessOnMarker1062" markerUnits="userSpaceOnUse" orient="auto" markerWidth="16.23606797749979" markerHeight="10.550836550532098" viewBox="-1.0 -1.3763819204711736 16.23606797749979 10.550836550532098" refX="15.23606797749979" refY="3.8990363547948754"><path id="ProcessOnPath1063" d="M12.0 3.8990363547948754L0.0 7.798072709589751V0.0Z" stroke="#323232" stroke-width="2.0" fill="#fff" transform="matrix(-1.0,1.2246467991473532E-16,-1.2246467991473532E-16,-1.0,14.23606797749979,7.798072709589751)"/></marker><marker id="ProcessOnMarker1086" markerUnits="userSpaceOnUse" orient="auto" markerWidth="14.289086868996552" markerHeight="19.055054660878554" viewBox="-0.5877852522924731 -0.8090169943749475 14.289086868996552 19.055054660878554" refX="1.1135163644116066" refY="8.71851033606433"><path id="ProcessOnPath1087" d="M0 0L12.0 8.71851033606433L0 17.43702067212866" stroke="#323232" stroke-width="2.0" fill="none" transform="matrix(-1.0,1.2246467991473532E-16,-1.2246467991473532E-16,-1.0,13.113516364411606,17.43702067212866)"/></marker><marker id="ProcessOnMarker1098" markerUnits="userSpaceOnUse" orient="auto" markerWidth="16.23606797749979" markerHeight="10.550836550532098" viewBox="-1.0 -1.3763819204711736 16.23606797749979 10.550836550532098" refX="-1.0" refY="3.8990363547948754"><path id="ProcessOnPath1099" d="M12.0 3.8990363547948754L0.0 7.798072709589751V0.0Z" stroke="#323232" stroke-width="2.0" fill="#fff" transform="matrix(1.0,0.0,0.0,1.0,0.0,0.0)"/></marker><marker id="ProcessOnMarker1110" markerUnits="userSpaceOnUse" orient="auto" markerWidth="14.289086868996552" markerHeight="19.055054660878554" viewBox="-0.5877852522924731 -0.8090169943749475 14.289086868996552 19.055054660878554" refX="1.1135163644116066" refY="8.71851033606433"><path id="ProcessOnPath1111" d="M0 0L12.0 8.71851033606433L0 17.43702067212866" stroke="#323232" stroke-width="2.0" fill="none" transform="matrix(-1.0,1.2246467991473532E-16,-1.2246467991473532E-16,-1.0,13.113516364411606,17.43702067212866)"/></marker><marker id="ProcessOnMarker1114" markerUnits="userSpaceOnUse" orient="auto" markerWidth="20.609529741924973" markerHeight="10.888175666885001" viewBox="-2.3047648709624866 -1.5914908829822711 20.609529741924973 10.888175666885001" refX="0.0" refY="3.8525969504602293"><path id="ProcessOnPath1115" d="M0 3.8525969504602293L8.0 0L16.0 3.8525969504602293L8.0 7.705193900920459Z" stroke="#323232" stroke-width="2.0" fill="#fff"/></marker><marker id="ProcessOnMarker1129" markerUnits="userSpaceOnUse" orient="auto" markerWidth="16.23606797749979" markerHeight="10.550836550532098" viewBox="-1.0 -1.3763819204711736 16.23606797749979 10.550836550532098" refX="15.23606797749979" refY="3.8990363547948754"><path id="ProcessOnPath1130" d="M12.0 3.8990363547948754L0.0 7.798072709589751V0.0Z" stroke="#323232" stroke-width="2.0" fill="#fff" transform="matrix(-1.0,1.2246467991473532E-16,-1.2246467991473532E-16,-1.0,14.23606797749979,7.798072709589751)"/></marker><marker id="ProcessOnMarker1203" markerUnits="userSpaceOnUse" orient="auto" markerWidth="16.23606797749979" markerHeight="10.550836550532098" viewBox="-1.0 -1.3763819204711736 16.23606797749979 10.550836550532098" refX="-1.0" refY="3.8990363547948754"><path id="ProcessOnPath1204" d="M12.0 3.8990363547948754L0.0 7.798072709589751V0.0Z" stroke="#323232" stroke-width="2.0" fill="#fff" transform="matrix(1.0,0.0,0.0,1.0,0.0,0.0)"/></marker><marker id="ProcessOnMarker1207" markerUnits="userSpaceOnUse" orient="auto" markerWidth="16.23606797749979" markerHeight="10.550836550532098" viewBox="-1.0 -1.3763819204711736 16.23606797749979 10.550836550532098" refX="-1.0" refY="3.8990363547948754"><path id="ProcessOnPath1208" d="M12.0 3.8990363547948754L0.0 7.798072709589751V0.0Z" stroke="#323232" stroke-width="2.0" fill="#fff" transform="matrix(1.0,0.0,0.0,1.0,0.0,0.0)"/></marker><marker id="ProcessOnMarker1211" markerUnits="userSpaceOnUse" orient="auto" markerWidth="16.23606797749979" markerHeight="10.550836550532098" viewBox="-1.0 -1.3763819204711736 16.23606797749979 10.550836550532098" refX="-1.0" refY="3.8990363547948754"><path id="ProcessOnPath1212" d="M12.0 3.8990363547948754L0.0 7.798072709589751V0.0Z" stroke="#323232" stroke-width="2.0" fill="#fff" transform="matrix(1.0,0.0,0.0,1.0,0.0,0.0)"/></marker></defs><g id="ProcessOnG1002"><path id="ProcessOnPath1003" d="M110.26785714285717 210.28571428571433H1531.42857142857V1346.7142857142858H110.26785714285711V210.28571428571422Z" fill="#ffffff"/><g id="ProcessOnG1004"><g id="ProcessOnG1005" transform="matrix(1.0,0.0,0.0,1.0,965.4285714285718,722.3545918367349)" opacity="1.0"><path id="ProcessOnPath1006" d="M0.0 4.0Q0.0 0.0 4.0 0.0L226.0 0.0Q230.0 0.0 230.0 4.0L230.0 204.0Q230.0 208.0 226.0 208.0L4.0 208.0Q0.0 208.0 0.0 204.0Z" stroke="#323232" stroke-width="2.0" stroke-dasharray="none" opacity="1.0" fill="#ffffff"/><path id="ProcessOnPath1007" d="M0.0 30.0L230.0 30.0M0.0 177.0L230.0 177.0" stroke="#323232" stroke-width="2.0" stroke-dasharray="none" opacity="1.0" fill="none"/><path id="ProcessOnPath1008" d="M0.0 0.0L230.0 0.0L230.0 208.0L0.0 208.0Z" stroke="none" stroke-width="0.0" stroke-dasharray="none" opacity="1.0" fill="none"/><g id="ProcessOnG1009" transform="matrix(1.0,0.0,0.0,1.0,10.0,6.875)"><text id="ProcessOnText1010" fill="#000000" font-size="13" x="104.0" y="13.325" font-family="微软雅黑" font-weight="bold" font-style="normal" text-decoration="none" family="微软雅黑" text-anchor="middle" size="13">Compilation</text></g><g id="ProcessOnG1011" transform="matrix(1.0,0.0,0.0,1.0,10.0,29.375)"><text id="ProcessOnText1012" fill="#000000" font-size="13" x="104.0" y="13.325" font-family="微软雅黑" font-weight="bold" font-style="normal" text-decoration="none" family="微软雅黑" text-anchor="middle" size="13">+ compiler</text><text id="ProcessOnText1013" fill="#000000" font-size="13" x="104.0" y="29.575" font-family="微软雅黑" font-weight="bold" font-style="normal" text-decoration="none" family="微软雅黑" text-anchor="middle" size="13">+ mainTemplate</text><text id="ProcessOnText1014" fill="#000000" font-size="13" x="104.0" y="45.825" font-family="微软雅黑" font-weight="bold" font-style="normal" text-decoration="none" family="微软雅黑" text-anchor="middle" size="13">+ chunkTemplate</text><text id="ProcessOnText1015" fill="#000000" font-size="13" x="104.0" y="62.075" font-family="微软雅黑" font-weight="bold" font-style="normal" text-decoration="none" family="微软雅黑" text-anchor="middle" size="13">+ moduleTemplate</text><text id="ProcessOnText1016" fill="#000000" font-size="13" x="104.0" y="78.325" font-family="微软雅黑" font-weight="bold" font-style="normal" text-decoration="none" family="微软雅黑" text-anchor="middle" size="13">+ modules</text><text id="ProcessOnText1017" fill="#000000" font-size="13" x="104.0" y="94.575" font-family="微软雅黑" font-weight="bold" font-style="normal" text-decoration="none" family="微软雅黑" text-anchor="middle" size="13">+ chunks</text><text id="ProcessOnText1018" fill="#000000" font-size="13" x="104.0" y="110.825" font-family="微软雅黑" font-weight="bold" font-style="normal" text-decoration="none" family="微软雅黑" text-anchor="middle" size="13">+ assets</text><text id="ProcessOnText1019" fill="#000000" font-size="13" x="104.0" y="127.075" font-family="微软雅黑" font-weight="bold" font-style="normal" text-decoration="none" family="微软雅黑" text-anchor="middle" size="13">+ dependencyTemplates</text><text id="ProcessOnText1020" fill="#000000" font-size="13" x="104.0" y="143.325" font-family="微软雅黑" font-weight="bold" font-style="normal" text-decoration="none" family="微软雅黑" text-anchor="middle" size="13">+ dependencyFactories</text></g><g id="ProcessOnG1021" transform="matrix(1.0,0.0,0.0,1.0,10.0,177.25)"><text id="ProcessOnText1022" fill="#000000" font-size="13" x="104.0" y="13.325" font-family="微软雅黑" font-weight="bold" font-style="normal" text-decoration="none" family="微软雅黑" text-anchor="middle" size="13">+ addEntry</text><text id="ProcessOnText1023" fill="#000000" font-size="13" x="104.0" y="29.575" font-family="微软雅黑" font-weight="bold" font-style="normal" text-decoration="none" family="微软雅黑" text-anchor="middle" size="13">+ seal</text></g></g><g id="ProcessOnG1024" transform="matrix(1.0,0.0,0.0,1.0,965.4285714285718,467.28571428571433)" opacity="1.0"><path id="ProcessOnPath1025" d="M0.0 4.0Q0.0 0.0 4.0 0.0L226.0 0.0Q230.0 0.0 230.0 4.0L230.0 156.0Q230.0 160.0 226.0 160.0L4.0 160.0Q0.0 160.0 0.0 156.0Z" stroke="#323232" stroke-width="2.0" stroke-dasharray="none" opacity="1.0" fill="#ffffff"/><path id="ProcessOnPath1026" d="M0.0 30.0L230.0 30.0M0.0 81.0L230.0 81.0" stroke="#323232" stroke-width="2.0" stroke-dasharray="none" opacity="1.0" fill="none"/><path id="ProcessOnPath1027" d="M0.0 0.0L230.0 0.0L230.0 160.0L0.0 160.0Z" stroke="none" stroke-width="0.0" stroke-dasharray="none" opacity="1.0" fill="none"/><g id="ProcessOnG1028" transform="matrix(1.0,0.0,0.0,1.0,10.0,6.875)"><text id="ProcessOnText1029" fill="#000000" font-size="13" x="104.0" y="13.325" font-family="微软雅黑" font-weight="bold" font-style="normal" text-decoration="none" family="微软雅黑" text-anchor="middle" size="13">Compiler</text></g><g id="ProcessOnG1030" transform="matrix(1.0,0.0,0.0,1.0,10.0,30.125)"><text id="ProcessOnText1031" fill="#000000" font-size="13" x="104.0" y="13.325" font-family="微软雅黑" font-weight="bold" font-style="normal" text-decoration="none" family="微软雅黑" text-anchor="middle" size="13">+ outputFileSystem</text><text id="ProcessOnText1032" fill="#000000" font-size="13" x="104.0" y="29.575" font-family="微软雅黑" font-weight="bold" font-style="normal" text-decoration="none" family="微软雅黑" text-anchor="middle" size="13">+ inputFileSystem</text><text id="ProcessOnText1033" fill="#000000" font-size="13" x="104.0" y="45.825" font-family="微软雅黑" font-weight="bold" font-style="normal" text-decoration="none" family="微软雅黑" text-anchor="middle" size="13">+ options</text></g><g id="ProcessOnG1034" transform="matrix(1.0,0.0,0.0,1.0,10.0,80.875)"><text id="ProcessOnText1035" fill="#000000" font-size="13" x="104.0" y="13.325" font-family="微软雅黑" font-weight="bold" font-style="normal" text-decoration="none" family="微软雅黑" text-anchor="middle" size="13">+ run</text><text id="ProcessOnText1036" fill="#000000" font-size="13" x="104.0" y="29.575" font-family="微软雅黑" font-weight="bold" font-style="normal" text-decoration="none" family="微软雅黑" text-anchor="middle" size="13">+ createChildCompiler</text><text id="ProcessOnText1037" fill="#000000" font-size="13" x="104.0" y="45.825" font-family="微软雅黑" font-weight="bold" font-style="normal" text-decoration="none" family="微软雅黑" text-anchor="middle" size="13">+ runAsChild</text><text id="ProcessOnText1038" fill="#000000" font-size="13" x="104.0" y="62.075" font-family="微软雅黑" font-weight="bold" font-style="normal" text-decoration="none" family="微软雅黑" text-anchor="middle" size="13">+ compile</text><text id="ProcessOnText1039" fill="#000000" font-size="13" x="104.0" y="78.325" font-family="微软雅黑" font-weight="bold" font-style="normal" text-decoration="none" family="微软雅黑" text-anchor="middle" size="13">+ emitAssets</text></g></g><g id="ProcessOnG1040"><path id="ProcessOnPath1041" d="M693.9285714285716 971.2142857142859L693.9285714285716 928.0344387755104L693.9285714285716 928.0344387755104L693.9285714285716 900.0906598142348" stroke="#323232" stroke-width="2.0" stroke-dasharray="none" fill="none" marker-end="url(#ProcessOnMarker1042)"/></g><g id="ProcessOnG1044"><path id="ProcessOnPath1045" d="M808.9285714285716 826.3545918367352L887.1785714285716 826.3545918367352L887.1785714285716 826.3545918367349L965.4285714285718 826.3545918367349" stroke="#323232" stroke-width="2.0" stroke-dasharray="none" fill="none"/></g><g id="ProcessOnG1046"><path id="ProcessOnPath1047" d="M1080.4285714285718 627.2857142857143L1080.4285714285718 674.8201530612246L1080.4285714285718 674.8201530612246L1080.4285714285718 722.3545918367349" stroke="#323232" stroke-width="2.0" stroke-dasharray="none" fill="none"/></g><g id="ProcessOnG1048" transform="matrix(1.0,0.0,0.0,1.0,235.42857142857127,837.7142857142859)" opacity="1.0"><path id="ProcessOnPath1049" d="M0.0 4.0Q0.0 0.0 4.0 0.0L96.0 0.0Q100.0 0.0 100.0 4.0L100.0 66.0Q100.0 70.0 96.0 70.0L4.0 70.0Q0.0 70.0 0.0 66.0Z" stroke="#323232" stroke-width="2.0" stroke-dasharray="none" opacity="1.0" fill="#ffffff"/><g id="ProcessOnG1050" transform="matrix(1.0,0.0,0.0,1.0,10.0,26.875)"><text id="ProcessOnText1051" fill="#000000" font-size="13" x="39.0" y="13.325" font-family="微软雅黑" font-weight="normal" font-style="normal" text-decoration="none" family="微软雅黑" text-anchor="middle" size="13">Dependency</text></g></g><g id="ProcessOnG1052" transform="matrix(1.0,0.0,0.0,1.0,235.42857142857127,703.7142857142856)" opacity="1.0"><path id="ProcessOnPath1053" d="M0.0 4.0Q0.0 0.0 4.0 0.0L188.0 0.0Q192.0 0.0 192.0 4.0L192.0 64.0Q192.0 68.0 188.0 68.0L4.0 68.0Q0.0 68.0 0.0 64.0Z" stroke="#323232" stroke-width="2.0" stroke-dasharray="none" opacity="1.0" fill="#ffffff"/><g id="ProcessOnG1054" transform="matrix(1.0,0.0,0.0,1.0,10.0,25.875)"><text id="ProcessOnText1055" fill="#000000" font-size="13" x="85.0" y="13.325" font-family="微软雅黑" font-weight="normal" font-style="normal" text-decoration="none" family="微软雅黑" text-anchor="middle" size="13">DependenciesBlockVariable</text></g></g><g id="ProcessOnG1056"><path id="ProcessOnPath1057" d="M335.42857142857116 872.7142857142859L457.17857142857133 872.7142857142859L457.17857142857133 826.3545918367352L578.9285714285716 826.3545918367352" stroke="#323232" stroke-width="2.0" stroke-dasharray="none" fill="none"/></g><g id="ProcessOnG1058"><path id="ProcessOnPath1059" d="M427.42857142857156 737.7142857142858L457.17857142857156 737.7142857142858L457.17857142857156 826.3545918367352L578.9285714285716 826.3545918367352" stroke="#323232" stroke-width="2.0" stroke-dasharray="none" fill="none"/></g><g id="ProcessOnG1060"><path id="ProcessOnPath1061" d="M285.4285714285712 922.9503536917856L285.4285714285712 945.2142857142859L285.4285714285712 945.2142857142859L285.4285714285712 982.7142857142859" stroke="#323232" stroke-width="2.0" stroke-dasharray="none" fill="none" marker-start="url(#ProcessOnMarker1062)"/></g><g id="ProcessOnG1064" transform="matrix(1.0,0.0,0.0,1.0,165.42857142857144,982.7142857142859)" opacity="1.0"><path id="ProcessOnPath1065" d="M8.0 8.0Q8.0 0.0 16.0 0.0L232.0 0.0Q240.0 0.0 240.0 8.0L240.0 97.0Q240.0 105.0 232.0 105.0L232.0 105.0" stroke="#323232" stroke-width="2.0" stroke-dasharray="none" opacity="1.0" fill="#ffffff"/><path id="ProcessOnPath1066" d="M0.0 16.0Q0.0 8.0 8.0 8.0L224.0 8.0Q232.0 8.0 232.0 16.0L232.0 105.0Q232.0 113.0 224.0 113.0L8.0 113.0Q0.0 113.0 0.0 105.0L0.0 16.0Z" stroke="#323232" stroke-width="2.0" stroke-dasharray="none" opacity="1.0" fill="#ffffff"/><path id="ProcessOnPath1067" d="M0.0 4.0Q0.0 0.0 4.0 0.0L236.0 0.0Q240.0 0.0 240.0 4.0L240.0 109.0Q240.0 113.0 236.0 113.0L4.0 113.0Q0.0 113.0 0.0 109.0Z" stroke="none" stroke-width="0.0" stroke-dasharray="none" opacity="1.0" fill="none"/><g id="ProcessOnG1068" transform="matrix(1.0,0.0,0.0,1.0,16.0,19.875)"><text id="ProcessOnText1069" fill="#000000" font-size="13" x="99.0" y="13.325" font-family="微软雅黑" font-weight="normal" font-style="normal" text-decoration="none" family="微软雅黑" text-anchor="middle" size="13">AMDDefineDependency</text><text id="ProcessOnText1070" fill="#000000" font-size="13" x="99.0" y="29.575" font-family="微软雅黑" font-weight="normal" font-style="normal" text-decoration="none" family="微软雅黑" text-anchor="middle" size="13">AMDRequireDependency</text><text id="ProcessOnText1071" fill="#000000" font-size="13" x="99.0" y="45.825" font-family="微软雅黑" font-weight="normal" font-style="normal" text-decoration="none" family="微软雅黑" text-anchor="middle" size="13">CommonJsDefineDependency</text><text id="ProcessOnText1072" fill="#000000" font-size="13" x="99.0" y="62.075" font-family="微软雅黑" font-weight="normal" font-style="normal" text-decoration="none" family="微软雅黑" text-anchor="middle" size="13">CommonJsRequireDependency</text><text id="ProcessOnText1073" fill="#000000" font-size="13" x="99.0" y="78.325" font-family="微软雅黑" font-weight="normal" font-style="normal" text-decoration="none" family="微软雅黑" text-anchor="middle" size="13">...</text></g></g><g id="ProcessOnG1074" transform="matrix(1.0,0.0,0.0,1.0,130.26785714285717,1158.7142857142858)" opacity="1.0"><path id="ProcessOnPath1075" d="M8.0 8.0Q8.0 0.0 16.0 0.0L302.32142857142856 0.0Q310.32142857142856 0.0 310.32142857142856 8.0L310.32142857142856 100.28571428571422Q310.32142857142856 108.28571428571422 302.32142857142856 108.28571428571422L302.32142857142856 108.28571428571422" stroke="#323232" stroke-width="2.0" stroke-dasharray="none" opacity="1.0" fill="#ffffff"/><path id="ProcessOnPath1076" d="M0.0 16.0Q0.0 8.0 8.0 8.0L294.32142857142856 8.0Q302.32142857142856 8.0 302.32142857142856 16.0L302.32142857142856 108.28571428571422Q302.32142857142856 116.28571428571422 294.32142857142856 116.28571428571422L8.0 116.28571428571422Q0.0 116.28571428571422 0.0 108.28571428571422L0.0 16.0Z" stroke="#323232" stroke-width="2.0" stroke-dasharray="none" opacity="1.0" fill="#ffffff"/><path id="ProcessOnPath1077" d="M0.0 4.0Q0.0 0.0 4.0 0.0L306.32142857142856 0.0Q310.32142857142856 0.0 310.32142857142856 4.0L310.32142857142856 112.28571428571422Q310.32142857142856 116.28571428571422 306.32142857142856 116.28571428571422L4.0 116.28571428571422Q0.0 116.28571428571422 0.0 112.28571428571422Z" stroke="none" stroke-width="0.0" stroke-dasharray="none" opacity="1.0" fill="none"/><g id="ProcessOnG1078" transform="matrix(1.0,0.0,0.0,1.0,16.0,21.51785714285711)"><text id="ProcessOnText1079" fill="#000000" font-size="13" x="134.16071428571428" y="13.325" font-family="微软雅黑" font-weight="normal" font-style="normal" text-decoration="none" family="微软雅黑" text-anchor="middle" size="13">AMDDefineDependencyTemplate</text><text id="ProcessOnText1080" fill="#000000" font-size="13" x="134.16071428571428" y="29.575" font-family="微软雅黑" font-weight="normal" font-style="normal" text-decoration="none" family="微软雅黑" text-anchor="middle" size="13">AMDRequireDependencyTemplate</text><text id="ProcessOnText1081" fill="#000000" font-size="13" x="134.16071428571428" y="45.825" font-family="微软雅黑" font-weight="normal" font-style="normal" text-decoration="none" family="微软雅黑" text-anchor="middle" size="13">CommonJsDefineDependencyTemplate</text><text id="ProcessOnText1082" fill="#000000" font-size="13" x="134.16071428571428" y="62.075" font-family="微软雅黑" font-weight="normal" font-style="normal" text-decoration="none" family="微软雅黑" text-anchor="middle" size="13">CommonJsRequireDependencyTemplate</text><text id="ProcessOnText1083" fill="#000000" font-size="13" x="134.16071428571428" y="78.325" font-family="微软雅黑" font-weight="normal" font-style="normal" text-decoration="none" family="微软雅黑" text-anchor="middle" size="13">...</text></g></g><g id="ProcessOnG1084"><path id="ProcessOnPath1085" d="M285.4285714285712 1095.7142857142858L285.4285714285712 1127.2142857142858L285.4285714285712 1127.2142857142858L285.4285714285712 1158.7142857142858" stroke="#323232" stroke-width="2.0" stroke-dasharray="2.0 3.0" fill="none" marker-start="url(#ProcessOnMarker1086)"/></g><g id="ProcessOnG1088" transform="matrix(1.0,0.0,0.0,1.0,580.6785714285716,1115.7142857142858)" opacity="1.0"><path id="ProcessOnPath1089" d="M8.0 8.0Q8.0 0.0 16.0 0.0L218.5 0.0Q226.5 0.0 226.5 8.0L226.5 61.0Q226.5 69.0 218.5 69.0L218.5 69.0" stroke="#323232" stroke-width="2.0" stroke-dasharray="none" opacity="1.0" fill="#ffffff"/><path id="ProcessOnPath1090" d="M0.0 16.0Q0.0 8.0 8.0 8.0L210.5 8.0Q218.5 8.0 218.5 16.0L218.5 69.0Q218.5 77.0 210.5 77.0L8.0 77.0Q0.0 77.0 0.0 69.0L0.0 16.0Z" stroke="#323232" stroke-width="2.0" stroke-dasharray="none" opacity="1.0" fill="#ffffff"/><path id="ProcessOnPath1091" d="M0.0 4.0Q0.0 0.0 4.0 0.0L222.5 0.0Q226.5 0.0 226.5 4.0L226.5 73.0Q226.5 77.0 222.5 77.0L4.0 77.0Q0.0 77.0 0.0 73.0Z" stroke="none" stroke-width="0.0" stroke-dasharray="none" opacity="1.0" fill="none"/><g id="ProcessOnG1092" transform="matrix(1.0,0.0,0.0,1.0,16.0,18.125)"><text id="ProcessOnText1093" fill="#000000" font-size="13" x="92.25" y="13.325" font-family="微软雅黑" font-weight="normal" font-style="normal" text-decoration="none" family="微软雅黑" text-anchor="middle" size="13">NormalModule</text><text id="ProcessOnText1094" fill="#000000" font-size="13" x="92.25" y="29.575" font-family="微软雅黑" font-weight="normal" font-style="normal" text-decoration="none" family="微软雅黑" text-anchor="middle" size="13">ContextModule</text><text id="ProcessOnText1095" fill="#000000" font-size="13" x="92.25" y="45.825" font-family="微软雅黑" font-weight="normal" font-style="normal" text-decoration="none" family="微软雅黑" text-anchor="middle" size="13">...</text></g></g><g id="ProcessOnG1096"><path id="ProcessOnPath1097" d="M693.9285714285718 1115.7142857142858L693.9285714285718 1089.9642857142858L693.9285714285716 1089.9642857142858L693.9285714285716 1079.4503536917855" stroke="#323232" stroke-width="2.0" stroke-dasharray="none" fill="none" marker-end="url(#ProcessOnMarker1098)"/></g><g id="ProcessOnG1100" transform="matrix(1.0,0.0,0.0,1.0,580.6785714285716,1249.7142857142858)" opacity="1.0"><path id="ProcessOnPath1101" d="M8.0 8.0Q8.0 0.0 16.0 0.0L218.5 0.0Q226.5 0.0 226.5 8.0L226.5 61.0Q226.5 69.0 218.5 69.0L218.5 69.0" stroke="#323232" stroke-width="2.0" stroke-dasharray="none" opacity="1.0" fill="#ffffff"/><path id="ProcessOnPath1102" d="M0.0 16.0Q0.0 8.0 8.0 8.0L210.5 8.0Q218.5 8.0 218.5 16.0L218.5 69.0Q218.5 77.0 210.5 77.0L8.0 77.0Q0.0 77.0 0.0 69.0L0.0 16.0Z" stroke="#323232" stroke-width="2.0" stroke-dasharray="none" opacity="1.0" fill="#ffffff"/><path id="ProcessOnPath1103" d="M0.0 4.0Q0.0 0.0 4.0 0.0L222.5 0.0Q226.5 0.0 226.5 4.0L226.5 73.0Q226.5 77.0 222.5 77.0L4.0 77.0Q0.0 77.0 0.0 73.0Z" stroke="none" stroke-width="0.0" stroke-dasharray="none" opacity="1.0" fill="none"/><g id="ProcessOnG1104" transform="matrix(1.0,0.0,0.0,1.0,16.0,18.125)"><text id="ProcessOnText1105" fill="#000000" font-size="13" x="92.25" y="13.325" font-family="微软雅黑" font-weight="normal" font-style="normal" text-decoration="none" family="微软雅黑" text-anchor="middle" size="13">NormalModuleFactory</text><text id="ProcessOnText1106" fill="#000000" font-size="13" x="92.25" y="29.575" font-family="微软雅黑" font-weight="normal" font-style="normal" text-decoration="none" family="微软雅黑" text-anchor="middle" size="13">ContextModuleFactory</text><text id="ProcessOnText1107" fill="#000000" font-size="13" x="92.25" y="45.825" font-family="微软雅黑" font-weight="normal" font-style="normal" text-decoration="none" family="微软雅黑" text-anchor="middle" size="13">...</text></g></g><g id="ProcessOnG1108"><path id="ProcessOnPath1109" d="M693.9285714285718 1192.7142857142862L693.9285714285718 1221.2142857142858L693.9285714285718 1221.2142857142858L693.9285714285718 1249.7142857142858" stroke="#323232" stroke-width="2.0" stroke-dasharray="2.0 3.0" fill="none" marker-start="url(#ProcessOnMarker1110)"/></g><g id="ProcessOnG1112"><path id="ProcessOnPath1113" d="M808.9285714285716 1017.7142857142858L887.1785714285716 1017.7142857142858L887.1785714285716 1017.7142857142858L947.1238065576093 1017.7142857142858" stroke="#323232" stroke-width="2.0" stroke-dasharray="none" fill="none" marker-end="url(#ProcessOnMarker1114)"/></g><g id="ProcessOnG1116"><path id="ProcessOnPath1117" d="M1080.4285714285718 930.3545918367349L1080.4285714285718 946.0344387755104L1080.4285714285718 946.0344387755104L1080.4285714285718 961.7142857142859" stroke="#323232" stroke-width="2.0" stroke-dasharray="none" fill="none"/></g><g id="ProcessOnG1118" transform="matrix(1.0,0.0,0.0,1.0,1319.17857142857,935.7142857142859)" opacity="1.0"><path id="ProcessOnPath1119" d="M8.0 8.0Q8.0 0.0 16.0 0.0L146.5 0.0Q154.5 0.0 154.5 8.0L154.5 74.0Q154.5 82.0 146.5 82.0L146.5 82.0" stroke="#323232" stroke-width="2.0" stroke-dasharray="none" opacity="1.0" fill="#ffffff"/><path id="ProcessOnPath1120" d="M0.0 16.0Q0.0 8.0 8.0 8.0L138.5 8.0Q146.5 8.0 146.5 16.0L146.5 82.0Q146.5 90.0 138.5 90.0L8.0 90.0Q0.0 90.0 0.0 82.0L0.0 16.0Z" stroke="#323232" stroke-width="2.0" stroke-dasharray="none" opacity="1.0" fill="#ffffff"/><path id="ProcessOnPath1121" d="M0.0 4.0Q0.0 0.0 4.0 0.0L150.5 0.0Q154.5 0.0 154.5 4.0L154.5 86.0Q154.5 90.0 150.5 90.0L4.0 90.0Q0.0 90.0 0.0 86.0Z" stroke="none" stroke-width="0.0" stroke-dasharray="none" opacity="1.0" fill="none"/><g id="ProcessOnG1122" transform="matrix(1.0,0.0,0.0,1.0,16.0,16.5)"><text id="ProcessOnText1123" fill="#000000" font-size="13" x="56.25" y="13.325" font-family="微软雅黑" font-weight="normal" font-style="normal" text-decoration="none" family="微软雅黑" text-anchor="middle" size="13">MainTemplate</text><text id="ProcessOnText1124" fill="#000000" font-size="13" x="56.25" y="29.575" font-family="微软雅黑" font-weight="normal" font-style="normal" text-decoration="none" family="微软雅黑" text-anchor="middle" size="13">ChunkTemplate</text><text id="ProcessOnText1125" fill="#000000" font-size="13" x="56.25" y="45.825" font-family="微软雅黑" font-weight="normal" font-style="normal" text-decoration="none" family="微软雅黑" text-anchor="middle" size="13">ModuleTemplate</text><text id="ProcessOnText1126" fill="#000000" font-size="13" x="56.25" y="62.075" font-family="微软雅黑" font-weight="normal" font-style="normal" text-decoration="none" family="微软雅黑" text-anchor="middle" size="13">...</text></g></g><g id="ProcessOnG1127"><path id="ProcessOnPath1128" d="M1396.42857142857 866.5906598142348L1396.42857142857 893.5344387755104L1396.42857142857 893.5344387755104L1396.42857142857 935.7142857142859" stroke="#323232" stroke-width="2.0" stroke-dasharray="none" fill="none" marker-start="url(#ProcessOnMarker1129)"/></g><g id="ProcessOnG1131"><path id="ProcessOnPath1132" d="M1195.42857142857 806.354591836735L1238.42857142857 806.354591836735L1238.42857142857 806.3545918367349L1281.42857142857 806.3545918367349" stroke="#323232" stroke-width="2.0" stroke-dasharray="none" fill="none"/></g><g id="ProcessOnG1133" transform="matrix(1.0,0.0,0.0,1.0,578.9285714285716,756.8545918367349)" opacity="1.0"><path id="ProcessOnPath1134" d="M0.0 4.0Q0.0 0.0 4.0 0.0L226.0 0.0Q230.0 0.0 230.0 4.0L230.0 124.0Q230.0 128.0 226.0 128.0L4.0 128.0Q0.0 128.0 0.0 124.0Z" stroke="#323232" stroke-width="2.0" stroke-dasharray="none" opacity="1.0" fill="#ffffff"/><path id="ProcessOnPath1135" d="M0.0 30.0L230.0 30.0M0.0 81.0L230.0 81.0" stroke="#323232" stroke-width="2.0" stroke-dasharray="none" opacity="1.0" fill="none"/><path id="ProcessOnPath1136" d="M0.0 0.0L230.0 0.0L230.0 128.0L0.0 128.0Z" stroke="none" stroke-width="0.0" stroke-dasharray="none" opacity="1.0" fill="none"/><g id="ProcessOnG1137" transform="matrix(1.0,0.0,0.0,1.0,10.0,6.875)"><text id="ProcessOnText1138" fill="#000000" font-size="13" x="104.0" y="13.325" font-family="微软雅黑" font-weight="bold" font-style="normal" text-decoration="none" family="微软雅黑" text-anchor="middle" size="13">DependenciesBlock</text></g><g id="ProcessOnG1139" transform="matrix(1.0,0.0,0.0,1.0,10.0,30.125)"><text id="ProcessOnText1140" fill="#000000" font-size="13" x="104.0" y="13.325" font-family="微软雅黑" font-weight="bold" font-style="normal" text-decoration="none" family="微软雅黑" text-anchor="middle" size="13">+ variables</text><text id="ProcessOnText1141" fill="#000000" font-size="13" x="104.0" y="29.575" font-family="微软雅黑" font-weight="bold" font-style="normal" text-decoration="none" family="微软雅黑" text-anchor="middle" size="13">+ dependencies</text><text id="ProcessOnText1142" fill="#000000" font-size="13" x="104.0" y="45.825" font-family="微软雅黑" font-weight="bold" font-style="normal" text-decoration="none" family="微软雅黑" text-anchor="middle" size="13">+ blocks</text></g><g id="ProcessOnG1143" transform="matrix(1.0,0.0,0.0,1.0,10.0,81.125)"><text id="ProcessOnText1144" fill="#000000" font-size="13" x="104.0" y="13.325" font-family="微软雅黑" font-weight="bold" font-style="normal" text-decoration="none" family="微软雅黑" text-anchor="middle" size="13">+ addVariable</text><text id="ProcessOnText1145" fill="#000000" font-size="13" x="104.0" y="29.575" font-family="微软雅黑" font-weight="bold" font-style="normal" text-decoration="none" family="微软雅黑" text-anchor="middle" size="13">+ addDependency</text><text id="ProcessOnText1146" fill="#000000" font-size="13" x="104.0" y="45.825" font-family="微软雅黑" font-weight="bold" font-style="normal" text-decoration="none" family="微软雅黑" text-anchor="middle" size="13">+ addBlock</text></g></g><g id="ProcessOnG1147" transform="matrix(1.0,0.0,0.0,1.0,578.9285714285716,971.2142857142859)" opacity="1.0"><path id="ProcessOnPath1148" d="M0.0 4.0Q0.0 0.0 4.0 0.0L226.0 0.0Q230.0 0.0 230.0 4.0L230.0 89.0Q230.0 93.0 226.0 93.0L4.0 93.0Q0.0 93.0 0.0 89.0Z" stroke="#323232" stroke-width="2.0" stroke-dasharray="none" opacity="1.0" fill="#ffffff"/><path id="ProcessOnPath1149" d="M0.0 30.0L230.0 30.0M0.0 63.0L230.0 63.0" stroke="#323232" stroke-width="2.0" stroke-dasharray="none" opacity="1.0" fill="none"/><path id="ProcessOnPath1150" d="M0.0 0.0L230.0 0.0L230.0 93.0L0.0 93.0Z" stroke="none" stroke-width="0.0" stroke-dasharray="none" opacity="1.0" fill="none"/><g id="ProcessOnG1151" transform="matrix(1.0,0.0,0.0,1.0,10.0,6.875)"><text id="ProcessOnText1152" fill="#000000" font-size="13" x="104.0" y="13.325" font-family="微软雅黑" font-weight="bold" font-style="normal" text-decoration="none" family="微软雅黑" text-anchor="middle" size="13">Module</text></g><g id="ProcessOnG1153" transform="matrix(1.0,0.0,0.0,1.0,10.0,30.25)"><text id="ProcessOnText1154" fill="#000000" font-size="13" x="104.0" y="13.325" font-family="微软雅黑" font-weight="bold" font-style="normal" text-decoration="none" family="微软雅黑" text-anchor="middle" size="13">+ id</text><text id="ProcessOnText1155" fill="#000000" font-size="13" x="104.0" y="29.575" font-family="微软雅黑" font-weight="bold" font-style="normal" text-decoration="none" family="微软雅黑" text-anchor="middle" size="13">+ _chunks</text></g><g id="ProcessOnG1156" transform="matrix(1.0,0.0,0.0,1.0,10.0,69.875)"><text id="ProcessOnText1157" fill="#000000" font-size="13" x="104.0" y="13.325" font-family="微软雅黑" font-weight="bold" font-style="normal" text-decoration="none" family="微软雅黑" text-anchor="middle" size="13">+ addChunk</text></g></g><g id="ProcessOnG1158" transform="matrix(1.0,0.0,0.0,1.0,965.4285714285718,961.7142857142859)" opacity="1.0"><path id="ProcessOnPath1159" d="M0.0 4.0Q0.0 0.0 4.0 0.0L226.0 0.0Q230.0 0.0 230.0 4.0L230.0 108.0Q230.0 112.0 226.0 112.0L4.0 112.0Q0.0 112.0 0.0 108.0Z" stroke="#323232" stroke-width="2.0" stroke-dasharray="none" opacity="1.0" fill="#ffffff"/><path id="ProcessOnPath1160" d="M0.0 30.0L230.0 30.0M0.0 81.0L230.0 81.0" stroke="#323232" stroke-width="2.0" stroke-dasharray="none" opacity="1.0" fill="none"/><path id="ProcessOnPath1161" d="M0.0 0.0L230.0 0.0L230.0 112.0L0.0 112.0Z" stroke="none" stroke-width="0.0" stroke-dasharray="none" opacity="1.0" fill="none"/><g id="ProcessOnG1162" transform="matrix(1.0,0.0,0.0,1.0,10.0,6.875)"><text id="ProcessOnText1163" fill="#000000" font-size="13" x="104.0" y="13.325" font-family="微软雅黑" font-weight="bold" font-style="normal" text-decoration="none" family="微软雅黑" text-anchor="middle" size="13">Chunk</text></g><g id="ProcessOnG1164" transform="matrix(1.0,0.0,0.0,1.0,10.0,30.125)"><text id="ProcessOnText1165" fill="#000000" font-size="13" x="104.0" y="13.325" font-family="微软雅黑" font-weight="bold" font-style="normal" text-decoration="none" family="微软雅黑" text-anchor="middle" size="13">+ id</text><text id="ProcessOnText1166" fill="#000000" font-size="13" x="104.0" y="29.575" font-family="微软雅黑" font-weight="bold" font-style="normal" text-decoration="none" family="微软雅黑" text-anchor="middle" size="13">+ name</text><text id="ProcessOnText1167" fill="#000000" font-size="13" x="104.0" y="45.825" font-family="微软雅黑" font-weight="bold" font-style="normal" text-decoration="none" family="微软雅黑" text-anchor="middle" size="13">+_modules</text></g><g id="ProcessOnG1168" transform="matrix(1.0,0.0,0.0,1.0,10.0,81.25)"><text id="ProcessOnText1169" fill="#000000" font-size="13" x="104.0" y="13.325" font-family="微软雅黑" font-weight="bold" font-style="normal" text-decoration="none" family="微软雅黑" text-anchor="middle" size="13">+ hasRuntime</text><text id="ProcessOnText1170" fill="#000000" font-size="13" x="104.0" y="29.575" font-family="微软雅黑" font-weight="bold" font-style="normal" text-decoration="none" family="微软雅黑" text-anchor="middle" size="13">+ addModule</text></g></g><g id="ProcessOnG1171" transform="matrix(1.0,0.0,0.0,1.0,1281.42857142857,761.3545918367349)" opacity="1.0"><path id="ProcessOnPath1172" d="M0.0 4.0Q0.0 0.0 4.0 0.0L226.0 0.0Q230.0 0.0 230.0 4.0L230.0 86.0Q230.0 90.0 226.0 90.0L4.0 90.0Q0.0 90.0 0.0 86.0Z" stroke="#323232" stroke-width="2.0" stroke-dasharray="none" opacity="1.0" fill="#ffffff"/><path id="ProcessOnPath1173" d="M0.0 30.0L230.0 30.0M0.0 62.0L230.0 62.0" stroke="#323232" stroke-width="2.0" stroke-dasharray="none" opacity="1.0" fill="none"/><path id="ProcessOnPath1174" d="M0.0 0.0L230.0 0.0L230.0 90.0L0.0 90.0Z" stroke="none" stroke-width="0.0" stroke-dasharray="none" opacity="1.0" fill="none"/><g id="ProcessOnG1175" transform="matrix(1.0,0.0,0.0,1.0,10.0,6.875)"><text id="ProcessOnText1176" fill="#000000" font-size="13" x="104.0" y="13.325" font-family="微软雅黑" font-weight="bold" font-style="normal" text-decoration="none" family="微软雅黑" text-anchor="middle" size="13">Template</text></g><g id="ProcessOnG1177" transform="matrix(1.0,0.0,0.0,1.0,10.0,36.875)"><text id="ProcessOnText1178" fill="#000000" font-size="13" x="104.0" y="13.325" font-family="微软雅黑" font-weight="bold" font-style="normal" text-decoration="none" family="微软雅黑" text-anchor="middle" size="13">+ outputOptions</text></g><g id="ProcessOnG1179" transform="matrix(1.0,0.0,0.0,1.0,10.0,68.875)"><text id="ProcessOnText1180" fill="#000000" font-size="13" x="104.0" y="13.325" font-family="微软雅黑" font-weight="bold" font-style="normal" text-decoration="none" family="微软雅黑" text-anchor="middle" size="13">+ renderChunkModules</text></g></g><g id="ProcessOnG1181" transform="matrix(1.0,0.0,0.0,1.0,409.9285714285718,230.28571428571433)" opacity="1.0"><path id="ProcessOnPath1182" d="M0.0 4.0Q0.0 0.0 4.0 0.0L259.0 0.0Q263.0 0.0 263.0 4.0L263.0 233.0Q263.0 237.0 259.0 237.0L4.0 237.0Q0.0 237.0 0.0 233.0Z" stroke="#323232" stroke-width="2.0" stroke-dasharray="none" opacity="1.0" fill="#ffffff"/><path id="ProcessOnPath1183" d="M0.0 30.0L263.0 30.0M0.0 60.0L263.0 60.0" stroke="#323232" stroke-width="2.0" stroke-dasharray="none" opacity="1.0" fill="none"/><path id="ProcessOnPath1184" d="M0.0 0.0L263.0 0.0L263.0 237.0L0.0 237.0Z" stroke="none" stroke-width="0.0" stroke-dasharray="none" opacity="1.0" fill="none"/><g id="ProcessOnG1185" transform="matrix(1.0,0.0,0.0,1.0,10.0,6.875)"><text id="ProcessOnText1186" fill="#000000" font-size="13" x="120.5" y="13.325" font-family="微软雅黑" font-weight="bold" font-style="normal" text-decoration="none" family="微软雅黑" text-anchor="middle" size="13">Tapable</text></g><g id="ProcessOnG1187" transform="matrix(1.0,0.0,0.0,1.0,10.0,36.875)"><text id="ProcessOnText1188" fill="#000000" font-size="13" x="120.5" y="13.325" font-family="微软雅黑" font-weight="bold" font-style="normal" text-decoration="none" family="微软雅黑" text-anchor="middle" size="13">+ _plugins</text></g><g id="ProcessOnG1189" transform="matrix(1.0,0.0,0.0,1.0,10.0,59.125)"><text id="ProcessOnText1190" fill="#000000" font-size="13" x="120.5" y="13.325" font-family="微软雅黑" font-weight="bold" font-style="normal" text-decoration="none" family="微软雅黑" text-anchor="middle" size="13">+ hasPlugins</text><text id="ProcessOnText1191" fill="#000000" font-size="13" x="120.5" y="29.575" font-family="微软雅黑" font-weight="bold" font-style="normal" text-decoration="none" family="微软雅黑" text-anchor="middle" size="13">+ plugin</text><text id="ProcessOnText1192" fill="#000000" font-size="13" x="120.5" y="45.825" font-family="微软雅黑" font-weight="bold" font-style="normal" text-decoration="none" family="微软雅黑" text-anchor="middle" size="13">+ apply</text><text id="ProcessOnText1193" fill="#000000" font-size="13" x="120.5" y="62.075" font-family="微软雅黑" font-weight="bold" font-style="normal" text-decoration="none" family="微软雅黑" text-anchor="middle" size="13">+ applyPlugins</text><text id="ProcessOnText1194" fill="#000000" font-size="13" x="120.5" y="78.325" font-family="微软雅黑" font-weight="bold" font-style="normal" text-decoration="none" family="微软雅黑" text-anchor="middle" size="13">+ applyPluginsWaterfall</text><text id="ProcessOnText1195" fill="#000000" font-size="13" x="120.5" y="94.575" font-family="微软雅黑" font-weight="bold" font-style="normal" text-decoration="none" family="微软雅黑" text-anchor="middle" size="13">+ applyPluginsBailResult</text><text id="ProcessOnText1196" fill="#000000" font-size="13" x="120.5" y="110.825" font-family="微软雅黑" font-weight="bold" font-style="normal" text-decoration="none" family="微软雅黑" text-anchor="middle" size="13">+ applyPluginsAsyncSeries</text><text id="ProcessOnText1197" fill="#000000" font-size="13" x="120.5" y="127.075" font-family="微软雅黑" font-weight="bold" font-style="normal" text-decoration="none" family="微软雅黑" text-anchor="middle" size="13">+ applyPluginsAsyncSeriesBailResult</text><text id="ProcessOnText1198" fill="#000000" font-size="13" x="120.5" y="143.325" font-family="微软雅黑" font-weight="bold" font-style="normal" text-decoration="none" family="微软雅黑" text-anchor="middle" size="13">+ applyPluginsAsyncWaterfall</text><text id="ProcessOnText1199" fill="#000000" font-size="13" x="120.5" y="159.575" font-family="微软雅黑" font-weight="bold" font-style="normal" text-decoration="none" family="微软雅黑" text-anchor="middle" size="13">+ applyPluginsParallel</text><text id="ProcessOnText1200" fill="#000000" font-size="13" x="120.5" y="175.825" font-family="微软雅黑" font-weight="bold" font-style="normal" text-decoration="none" family="微软雅黑" text-anchor="middle" size="13">+ applyPluginsParallelBailResult</text></g></g><g id="ProcessOnG1201"><path id="ProcessOnPath1202" d="M1080.4285714285718 467.28571428571433L1080.4285714285718 348.78571428571433L688.1646394060716 348.78571428571433" stroke="#323232" stroke-width="2.0" stroke-dasharray="none" fill="none" marker-end="url(#ProcessOnMarker1203)"/></g><g id="ProcessOnG1205"><path id="ProcessOnPath1206" d="M1386.0 762.0L1386.0 276.0L687.2360679774998 276.0" stroke="#323232" stroke-width="2.0" stroke-dasharray="none" fill="none" marker-end="url(#ProcessOnMarker1207)"/></g><g id="ProcessOnG1209"><path id="ProcessOnPath1210" d="M966.0 736.0L541.4285714285718 736.0L541.4285714285718 482.5217822632141" stroke="#323232" stroke-width="2.0" stroke-dasharray="none" fill="none" marker-end="url(#ProcessOnMarker1211)"/></g></g></g></svg>